<?xml version="1.0" ?><svg fill="#fcfcfc" id="icon" style="enable-background:new 0 0 512 512;" version="1.1" viewBox="0 0 512 512" xml:space="preserve" xmlns="http://www.w3.org/2000/svg" xmlns:xlink="http://www.w3.org/1999/xlink"><g><path d="M238.822998,238.8173981c-9.4680939,9.4682007-9.4680939,24.8759918,0,34.3495941   c4.7341003,4.7339172,10.9530945,7.098114,17.1723022,7.098114c6.218811,0,12.4401855-2.3641968,17.1742859-7.098114   c4.5894165-4.589386,7.1143188-10.6894836,7.1143188-17.1772919c0-6.488205-2.5276184-12.5883026-7.1143188-17.1723022   C263.7013855,229.3493958,248.2911987,229.3493958,238.822998,238.8173981z M265.677887,265.6748047   c-5.334198,5.3397827-14.0209808,5.344696-19.3605804,0c-5.3393097-5.3394165-5.3393097-14.0261078-0.0024109-19.3657074   c2.6694031-2.669693,6.1748047-3.9992981,9.6829071-3.9992981c3.5050964,0,7.010498,1.3296051,9.6800842,3.9992981   c2.5869141,2.5868988,4.0098267,6.0223999,4.0098267,9.680603   C269.6877136,259.6474915,268.264801,263.0878906,265.677887,265.6748047z"/><path d="M430.4941101,193.1528015c-0.9883118-2.757309-4.025116-4.1909027-6.7776184-3.1972046   c-2.7523804,0.993103-4.1831055,4.0251007-3.1923828,6.7776031   c18.3168945,50.9743042,11.8623047,107.6700897-17.0129089,153.0236053l-16.5674133-13.8401184   c20.2221985-33.1236877,27.2297058-73.5802917,19.1506042-111.8082886c-0.6056824-2.8616028-3.414978-4.6826019-6.281189-4.0879059   c-2.8612976,0.6055145-4.6929016,3.4153137-4.0874023,6.281311c7.4160156,35.0790863,1.2036133,72.1743011-16.9927063,102.756485   l-20.3959961-17.0384827c6.780304-12.3633118,11.3369141-25.679718,13.3069153-39.7581177   c0.406189-2.8976746-1.6143188-5.5780945-4.5117188-5.9813843c-2.884491-0.4400024-5.5773926,1.614502-5.9809875,4.5113831   c-1.6946106,12.103302-5.5041199,23.5789185-11.110321,34.297699l-38.3666992-32.0500793   c1.6618042-5.4530945,2.526825-11.1819153,2.526825-17.0447083c0-15.5525055-6.0534058-30.1687012-17.0480957-41.1582031   c-10.9917297-10.9940948-25.610321-17.0529938-41.1552124-17.0529938c-5.8650055,0-11.5957031,0.8665009-17.0516052,2.5307922   l-78.6158905-94.071991c-7.1970062-7.1968002-16.802002-11.1651001-27.0440063-11.1651001   c-10.2389984,0-19.8442001,3.9682999-27.0410004,11.1651001c-7.1969986,7.1968002-11.1628036,16.7994995-11.1628036,27.0386047   c0,7.4205933,2.1098022,14.4925995,6.125,20.691391c-31.9379959,48.3666992-39.4367981,109.5132141-19.869194,164.4090881   c0.773201,2.167511,2.8117981,3.5181274,4.9899979,3.5181274c0.5898972,0,1.1902008-0.0984192,1.7798004-0.3054199   c2.7550964-0.9828796,4.1933975-4.0148926,3.2105026-6.7724915   c-18.1263046-50.8500977-11.6172028-107.3867035,17.1651993-152.5980988l16.6335983,13.8956909   c-17.6463013,28.8924103-25.3796997,63.1040039-21.5934982,96.9958954   c0.3024979,2.7058105,2.5944977,4.7082214,5.2565994,4.7082214c0.1964951,0,0.3956985-0.010498,0.5948944-0.0307007   c2.9078064-0.3262024,5.003006-2.949707,4.677002-5.8572083c-3.4653015-31.029007,3.4490051-62.3376007,19.2935028-88.9425964   l20.2444,16.9120941c-17.7593079,32.3638-19.2268066,71.2663116-3.6699066,105.0035858   c0.8950043,1.9405212,2.8120117,3.0783997,4.814209,3.0783997c0.742691,0,1.4978027-0.1552734,2.2169952-0.4862976   c2.6569977-1.2260742,3.8159027-4.3717957,2.5921021-7.0312805c-13.853302-30.0426941-12.8946075-64.6008148,2.3172913-93.6552124   l38.5037079,32.1650085c-6.0536957,19.9143066-1.2415009,42.4523926,14.4745941,58.1684875   c11.346405,11.3462219,26.2525024,17.0171204,41.1560059,17.0171204c5.7414856,0,11.4779968-0.861908,17.0163879-2.5445251   l78.6509094,94.1221008c7.4555054,7.4553223,17.2496948,11.1807251,27.0411987,11.1807251   c9.7941895,0,19.5881042-3.7254028,27.0440063-11.1807251c12.8735046-12.8759766,14.6040039-32.716095,5.0196838-47.7018738   C442.8258972,309.5145874,450.2719116,248.1840973,430.4941101,193.1528015z M113.6528015,152.7304993   c-5.1371994-5.1840973-7.9740982-12.0805969-7.9740982-19.4496918c0-7.4092102,2.8612976-14.3521042,8.0580978-19.5467072   c5.197197-5.1998978,12.1406021-8.0607986,19.5494995-8.0607986c7.4116974,0,14.3549957,2.8609009,19.2315063,7.7089996   l67.5819855,80.8998947C159.1425018,189.449707,116.1098022,154.7536926,113.6528015,152.7304993z M158.9104004,190.5554047   c18.9432983,7.5780945,42.2507019,13.7702942,68.6253967,14.6886902   c-4.5877991,2.5826111-8.8724976,5.7676086-12.6965027,9.5923004c-4.1945953,4.1949005-7.6029968,8.8798981-10.2467957,13.8672028   L158.9104004,190.5554047z M222.3314972,289.6557922c-18.5614929-18.5637817-18.5614929-48.7636871,0-67.3276978   c8.9918976-8.9918976,20.9490051-13.9487,33.6663055-13.9487c12.7147827,0,24.6712952,4.9568024,33.6637878,13.9487   c8.9919128,8.9922028,13.9432983,20.9490051,13.9432983,33.6665039c0,12.7121887-4.9513855,24.6690063-13.9432983,33.6611938   C271.0975952,308.2145996,240.8901062,308.2095032,222.3314972,289.6557922z M297.1530151,297.1474915   c4.1498718-4.1479797,7.5905762-8.8150024,10.2729797-13.8500977l45.6647949,38.1325073   c-18.9595032-7.5837097-42.2902832-13.781189-68.6930847-14.6925964   C288.9627991,304.1854858,293.2770996,301.0238953,297.1530151,297.1474915z M398.2557983,398.25   c-10.7825012,10.7773132-28.3241882,10.7721863-38.7807007,0.3521118l-67.579895-80.9000244   c60.9468079,4.8326111,103.9754028,39.5108032,106.4433899,41.5450134   C409.0213928,370.0371094,409.001709,387.4989929,398.2557983,398.25z"/><path d="M99.7832031,334.6064148c-1.3115997-2.618103-4.501503-3.6682129-7.1143036-2.3542175   c-2.6128006,1.3196106-3.6654968,4.501709-2.3488998,7.1140137c2.3256989,4.6257019,4.876503,9.1991882,7.5822983,13.6026001   c1.0012054,1.6295776,2.739502,2.5243835,4.5195007,2.5243835c0.9468002,0,1.903801-0.2535095,2.7681046-0.7864075   c2.4936981-1.5312805,3.2721939-4.790802,1.7409973-7.2848816   C104.3800964,343.2727051,101.976799,338.957489,99.7832031,334.6064148z"/><path d="M132.3759003,379.6138c-2.0695038-2.069397-5.4247971-2.069397-7.4944,0   c-2.0695038,2.0646973-2.0695038,5.4220886-0.0026016,7.4916992c4.0277939,4.0307007,8.2988052,7.9265137,12.6940994,11.5844116   c0.9907074,0.8227844,2.1911011,1.2260742,3.3863983,1.2260742c1.5186005,0,3.0265961-0.6515808,4.0745087-1.9088745   c1.8725891-2.250824,1.5648956-5.5877075-0.6831055-7.4607239   C140.2037964,387.0954895,136.1732941,383.4165039,132.3759003,379.6138z"/><path d="M406.8186035,167.4853973c0.9881897,1.6762085,2.7575073,2.6130066,4.5737,2.6130066   c0.9105835,0,1.8367004-0.2332001,2.6799011-0.7297058c2.5221863-1.4848938,3.365509-4.7290955,1.883606-7.2536926   c-3.2492981-5.5256042-6.8399048-10.9585114-10.6739197-16.1477051c-1.7357788-2.3542938-5.0575867-2.8560028-7.408905-1.1177063   c-2.354187,1.7383118-2.8507996,5.0547028-1.1122742,7.408905   C400.3717957,157.1531067,403.7583008,162.2754059,406.8186035,167.4853973z"/><path d="M379.6192932,132.3652039c1.0350037,1.0345001,2.3904114,1.552002,3.7459106,1.552002   c1.3556824,0,2.7138977-0.5175018,3.7488098-1.552002c2.0668945-2.0695038,2.0668945-5.4277039-0.0025024-7.4922028   c-3.135498-3.1352005-6.4082031-6.1826019-9.7321167-9.0642014c-2.2120056-1.9299011-5.5596008-1.6818008-7.4736938,0.5276031   c-1.9172058,2.2092972-1.6816101,5.5569,0.530304,7.471199   C373.5711975,126.528801,376.6600952,129.4105988,379.6192932,132.3652039z"/><path d="M124.0690002,310.8270874c-2.1288986-5.1217957-3.9785004-10.4562988-5.5020981-15.8421936   c-0.7994003-2.8144836-3.7359009-4.4754028-6.5398026-3.6524048c-2.8173981,0.7964172-4.4549026,3.719696-3.6582031,6.5393066   c1.6376038,5.7845154,3.6272049,11.5119934,5.9165039,17.0222168c0.8459015,2.0385742,2.8171005,3.264679,4.8945007,3.264679   c0.6780014,0,1.3656998-0.1291809,2.0307007-0.403595C123.9113007,316.6325989,125.1921005,313.5281067,124.0690002,310.8270874z"/><path d="M380.4549866,175.4324036c-2.5116882,1.5052948-3.3268738,4.7596893-1.8237,7.2693024   c2.8792114,4.8116913,5.505127,9.855896,7.8049011,15.0040894c0.879425,1.9663086,2.8145142,3.135498,4.8401184,3.135498   c0.7216797,0,1.456604-0.144989,2.1598816-0.4603882c2.6697083-1.1954041,3.8677063-4.3256989,2.6748047-7.0005035   c-2.4701843-5.5254059-5.2926941-10.9532013-8.3890991-16.1215973   C386.218689,174.7440948,382.9645996,173.9369965,380.4549866,175.4324036z"/><path d="M367.4584961,259.2749023c0.0310059,0,0.0643921,0,0.0953979,0   c2.9259949-0.0517883,5.2568054-2.4680176,5.2051086-5.391098c-0.0415039-2.3128052-0.1499023-4.6150055-0.3283997-6.9123993   c-0.2301941-2.9179077-2.773407-5.0962067-5.6940918-4.873703c-2.9179077,0.2276917-5.0986023,2.7783051-4.8711243,5.6911011   c0.1629028,2.0903931,0.261322,4.185791,0.2976074,6.2812958   C362.2145996,256.9621887,364.5763855,259.2749023,367.4584961,259.2749023z"/><path d="M172.703598,321.8684082c-1.8210907-2.2971191-5.1506958-2.6802063-7.4427032-0.8640137   c-2.2919006,1.815918-2.6800995,5.1533203-0.861496,7.4450989c2.7707062,3.4978027,5.8054047,6.9020996,9.0182953,10.119812   c1.0344086,1.0351868,2.392807,1.5524902,3.7483063,1.5524902c1.3556976,0,2.7111969-0.5173035,3.7458038-1.5524902   c2.0695953-2.064209,2.0695953-5.421814,0.0025024-7.491394   C177.9859924,328.1492004,175.2259979,325.050293,172.703598,321.8684082z"/></g></svg>