<?xml version="1.0" ?><svg fill="#fcfcfc" viewBox="0 0 400 400" xmlns="http://www.w3.org/2000/svg"><g data-name="Layer 26" id="Layer_26"><path d="M200.07,349.32A149.41,149.41,0,0,1,54.4,233.39H34.2A18.4,18.4,0,0,1,19.83,203.5l37.62-47,0,0c1.24-1.67,4.79-6.09,15.78-19.77,5.39-6.71,11-13.64,11.55-14.41l.12-.16a18.34,18.34,0,0,1,14.36-6.89h0a18.32,18.32,0,0,1,14.36,6.91l10.67,13.31c21.48,26.82,24.89,31.07,25.49,31.83h0l29,36.11a18.4,18.4,0,0,1-14.36,29.9H154.15c11.09,15.08,30,24.36,48.7,23.22a57.14,57.14,0,0,0,9.72-1.33c13.14-3.36,27.76.06,39.11,9.14s17.94,22.58,17.52,36v0c-1,28.44-20.64,46-53.93,48.07A148.34,148.34,0,0,1,200.07,349.32ZM65.42,162.57c0,.07-.1.15-.16.22l-37.62,47a8.4,8.4,0,0,0,6.56,13.64H58.44a5,5,0,0,1,4.9,4,139.65,139.65,0,0,0,92,104.6,140.42,140.42,0,0,0,59,6.59l.19,0c19.81-1.24,43.64-8.91,44.67-38.43.31-10.33-4.83-20.77-13.77-27.92S225.12,262.38,215,265l-.14,0a66.85,66.85,0,0,1-11.44,1.57c-25.73,1.59-50.92-12.86-62.66-35.93a5,5,0,0,1,4.46-7.27h19.2A8.4,8.4,0,0,0,171,209.74l-24.42-30.47c-2.33-2.9-3.69-4.6-4.49-5.72l-.06,0-25.47-31.8-10.71-13.37a8.35,8.35,0,0,0-6.51-3.1h0a8.35,8.35,0,0,0-6.55,3.15h0c-.86,1.12-3.39,4.27-11.68,14.59C74.46,151.28,66.26,161.48,65.42,162.57ZM264.21,300.31h0ZM141.93,173.38l-.06.05Z"/><path d="M300.7,284.67h0a18.32,18.32,0,0,1-14.36-6.91l-11.69-14.59-24.47-30.54h0l-29-36.12a18.4,18.4,0,0,1,14.36-29.9h10.26c-11.09-15.07-30-24.37-48.7-23.22a57.39,57.39,0,0,0-9.73,1.33c-13.13,3.36-27.75-.06-39.11-9.14s-17.93-22.58-17.51-36v0c1-28.44,20.64-46,53.93-48.07a149,149,0,0,1,115.68,38,148.53,148.53,0,0,1,45.19,77.15h20.2a18.4,18.4,0,0,1,14.37,29.89l-37.62,47,0,0c-1.24,1.67-4.78,6.08-15.74,19.73-5.41,6.72-11,13.68-11.59,14.45l-.12.16A18.3,18.3,0,0,1,300.7,284.67ZM258,226.41l24.45,30.51,11.74,14.66a8.31,8.31,0,0,0,6.5,3.09h0a8.35,8.35,0,0,0,6.55-3.15h0c.87-1.13,3.4-4.28,11.71-14.63,6.59-8.2,14.77-18.38,15.61-19.47.05-.07.1-.15.16-.22l37.62-47a8.4,8.4,0,0,0-6.56-13.64H341.56a5,5,0,0,1-4.9-4,139.64,139.64,0,0,0-92-104.6,140.35,140.35,0,0,0-59-6.59l-.19,0c-19.81,1.24-43.64,8.91-44.67,38.43-.31,10.34,4.83,20.77,13.77,27.92S174.88,137.63,185,135l.14,0a66.85,66.85,0,0,1,11.44-1.57c25.71-1.58,50.92,12.86,62.66,35.93a5,5,0,0,1-4.46,7.27h-19.2A8.4,8.4,0,0,0,229,190.26L258,226.37Z"/></g></svg>