<?xml version="1.0" ?><svg viewBox="0 0 22.573 22.596" xmlns="http://www.w3.org/2000/svg"><g data-name="Layer 2" id="Layer_2"><g data-name="Layer 1" id="Layer_1-2"><path d="M14.972,11.539l5.909-5.9a.332.332,0,0,0,.084-.139L22.557.463a.342.342,0,0,0-.431-.429L17.11,1.651a.346.346,0,0,0-.137.083l-5.9,5.891L8.851,5.39A4.5,4.5,0,0,0,2.961.281a.342.342,0,0,0-.127.563L5.7,3.721,3.686,5.742.824,2.867a.345.345,0,0,0-.565.127A4.52,4.52,0,0,0,1.538,7.9L.522,8.921a.342.342,0,0,0,0,.483A3.32,3.32,0,0,0,5.55,8.915l2.111,2.12-6,6c-.4-.529-1.013.085-.484.484l-.789.787a1.317,1.317,0,0,0,0,1.856l2.049,2.048a1.314,1.314,0,0,0,.929.383c.673.073,1.283-.769,1.718-1.172.4.529,1.013-.085.484-.483l6-5.988,6.9,6.935a2.413,2.413,0,0,0,3.407-3.418ZM21.705.888,20.48,4.762l-2.634-2.63ZM.755,3.767,3.2,6.227,2.021,7.415A3.837,3.837,0,0,1,.755,3.767ZM5.792,8.188c-.376-.373-.8.384-1.214.733a2.526,2.526,0,0,1-3.315.225L6.424,3.962a.343.343,0,0,0,0-.482L3.731.775A3.817,3.817,0,0,1,8.158,5.358a.342.342,0,0,0,.071.378l2.362,2.372L9.583,9.116,7.451,6.985a.342.342,0,0,0-.483.483L9.1,9.6l-.954.953ZM17.211,2.465l1.224,1.222L3.371,18.748l-1.232-1.23ZM3.807,21.724a.632.632,0,0,1-.891,0L.866,19.678c-.612-.644.432-1.247.79-1.677L4.6,20.937Zm1.272-1.271L3.855,19.231,18.919,4.17,20.15,5.4Zm16.3.948a1.757,1.757,0,0,1-2.437,0l-6.9-6.935L13,13.505l6.767,6.767a.342.342,0,0,0,.484-.484l-6.767-6.767,1-1,6.9,6.926A1.741,1.741,0,0,1,21.383,21.4Z" id="serives"/></g></g></svg>