<?xml version="1.0" ?><svg viewBox="0 0 64 64" xmlns="http://www.w3.org/2000/svg"><defs><style>.cls-1{fill:none;}.cls-2{fill:#010101;}</style></defs><title/><g data-name="Layer 3" id="Layer_3"><rect class="cls-1" height="64" width="64"/></g><g data-name="Design Convert" id="Design_Convert"><path class="cls-2" d="M38.81,57a1,1,0,0,1-.74-.33l-1.28-1.41a6.45,6.45,0,0,0-9.58,0l-1.28,1.41a1,1,0,0,1-1.12.25l-5.35-2.21a1,1,0,0,1-.61-1l.09-1.9a6.45,6.45,0,0,0-6.77-6.77l-1.91.09a1,1,0,0,1-1-.61L7.08,39.19a1,1,0,0,1,.25-1.12l1.41-1.28a6.45,6.45,0,0,0,0-9.58L7.33,25.93a1,1,0,0,1-.25-1.12l2.21-5.35a1,1,0,0,1,1-.61l1.91.09a6.45,6.45,0,0,0,6.77-6.77l-.09-1.9a1,1,0,0,1,.61-1l5.35-2.21a1,1,0,0,1,1.12.25l1.28,1.41a6.45,6.45,0,0,0,9.58,0l1.28-1.41a1,1,0,0,1,1.12-.25l5.35,2.21a1,1,0,0,1,.61,1l-.09,1.9a6.45,6.45,0,0,0,6.77,6.77l1.91-.09a1,1,0,0,1,1,.61l2.21,5.35a1,1,0,0,1-.25,1.12l-1.41,1.28a6.45,6.45,0,0,0,0,9.58l1.41,1.28a1,1,0,0,1,.25,1.12l-2.21,5.35a1,1,0,0,1-1,.61l-1.91-.09a6.45,6.45,0,0,0-6.77,6.77l.09,1.9a1,1,0,0,1-.61,1l-5.35,2.21A.84.84,0,0,1,38.81,57ZM20.88,53.13l4,1.68.8-.89a8.46,8.46,0,0,1,12.56,0l.8.89,4-1.68-.06-1.2a8.44,8.44,0,0,1,8.87-8.87l1.2.06,1.68-4-.89-.8a8.46,8.46,0,0,1,0-12.56l.89-.8-1.68-4-1.2.06a8.44,8.44,0,0,1-8.87-8.87l.06-1.2-4-1.68-.8.89h0a8.46,8.46,0,0,1-12.56,0l-.8-.89-4,1.68.06,1.2a8.44,8.44,0,0,1-8.87,8.87l-1.2-.06-1.68,4,.89.8a8.46,8.46,0,0,1,0,12.56l-.89.8,1.68,4,1.2-.06a8.44,8.44,0,0,1,8.87,8.87ZM37.53,9.41h0Z"/><path class="cls-2" d="M32,44A12,12,0,1,1,44,32,12,12,0,0,1,32,44Zm0-22A10,10,0,1,0,42,32,10,10,0,0,0,32,22Z"/></g></svg>