<svg width="1024" height="768" viewBox="0 0 1024 768" fill="none" xmlns="http://www.w3.org/2000/svg">
<path d="M833.465 235.276L826.271 371.318L451.5 314.416V220.886L798.146 215L833.465 235.276Z" fill="#002AFF"/>
<path d="M788.335 368.702L798 215L832.811 234.622L827 370.5L788.335 368.702Z" fill="#002AFF"/>
<path d="M413 227.455H465.236V260.102H448.202L413 237.249V227.455Z" fill="#002AFF"/>
<path d="M866.735 232.769H810.574V267.869H828.887L866.735 243.299V232.769Z" fill="#002AFF"/>
<path d="M872 234.524L866.735 232.769V243.299L872 245.931V234.524Z" fill="#02749A"/>
<path d="M840.409 266.114L871.999 245.931L866.734 243.299L829.001 267.869L840.409 266.114Z" fill="#02749A"/>
<path d="M826.329 323.572C879.147 328.782 937.314 360.268 944 375.896C934.907 416.009 859.981 389.775 823.655 371.759L826.329 323.572Z" fill="#002AFF"/>
<path d="M175 312.5C112.781 329.44 90.7534 340.5 84 348C87.0499 349.618 93.0202 369.177 104 372C117.725 375.529 118.67 395.362 129.667 424.861C142.135 458.307 158.964 504.119 165.5 527.5C172.036 550.881 173.455 554 289.5 588.5C386.939 617.468 703.709 578.675 842.045 568.676L944 397.509V375.893C936.157 403.685 867.534 383.834 842.045 375.893C816.556 367.952 671.466 335.748 611.993 325.161C552.519 314.573 437.493 300.456 368.216 292.074C312.794 285.369 287.664 286.764 282 280H263.7C259.561 288.235 237.219 295.56 175 312.5Z" fill="#002AFF"/>
<path d="M246.5 289C146.1 315 95.3333 337.167 82.5 345L91 372L112.5 380.5L173.5 553L288.5 588.5L236.5 452.5L281.5 280H264.5C260.9 284.4 251 287.833 246.5 289Z" fill="#002AFF"/>
<path d="M475.195 408.885L449.756 405.82C449.231 377.93 428.952 357.371 402.066 353.191C387.935 350.991 376.517 352.155 368.393 357.763C360.269 363.371 355.985 372.632 355.473 385.271C355.235 389.311 355.639 393.362 356.669 397.275C357.67 400.819 359.49 404.077 361.982 406.79C364.319 409.38 366.812 411.826 369.446 414.114C372.886 416.776 376.679 418.946 380.718 420.562C385.865 422.804 390.032 424.437 393.165 425.486C396.297 426.534 401.192 428.305 407.887 430.501C415.919 433.186 422.802 435.444 428.149 437.423C434.698 439.962 441.069 442.937 447.218 446.329C453.591 449.61 459.439 453.821 464.568 458.825C469.17 463.691 472.848 469.352 475.424 475.531C478.517 482.707 479.892 490.505 479.44 498.304C479.291 511.804 474.636 524.868 466.212 535.424C458.415 545.314 448.231 553.064 436.615 557.946C424.57 562.839 411.801 565.72 398.82 566.471C373.622 568.161 353.718 562.447 339.189 548.655C324.66 534.864 317.868 512.954 319.039 484.075L344.631 484.706C344.364 505.353 349.48 520.39 359.969 529.409C370.459 538.428 384.518 542.387 401.966 541.739C414.621 541.549 426.977 537.875 437.675 531.122C447.68 524.642 452.97 514.636 453.532 500.778C453.908 495.12 452.779 489.462 450.262 484.379C447.489 479.411 443.351 475.339 438.336 472.645C433.04 469.524 427.505 466.825 421.784 464.573C416.255 462.397 408.92 459.904 399.865 457.015C398.95 456.832 398.052 456.569 397.183 456.229C376.798 449.655 363.531 444.237 357.309 440.407C338.268 428.791 329.262 409.963 330.293 384.522C331.249 360.947 339.004 344.345 353.529 335.499C368.053 326.654 385.21 324.476 404.994 328.477C426.771 332.856 443.917 342.335 456.502 355.886C469.087 369.436 475.323 386.985 475.195 408.885Z" fill="white"/>
<path d="M522.104 362.14L609.498 379.238C639.974 385.245 675.442 401.322 674.413 436.741C674.204 445.779 670.478 454.38 664.025 460.719C657.129 467.609 648.223 472.136 638.589 473.649C644.226 474.938 649.63 477.087 654.613 480.019C658.479 482.394 661.49 485.933 663.213 490.127C664.726 493.642 665.807 497.327 666.431 501.102C666.845 504.291 667.114 509.019 667.243 515.205C667.218 515.828 667.159 517.289 667.363 519.629C667.566 521.969 667.474 523.565 667.44 524.404C667.437 525.874 667.513 527.343 667.669 528.805C667.873 530.928 668.053 532.507 668.21 533.544C668.358 534.58 668.57 536.026 668.877 537.827C669.089 539.326 669.495 540.792 670.085 542.187C670.611 543.265 671.211 544.537 671.914 545.921C672.568 547.236 673.374 548.469 674.316 549.597C675.191 550.648 676.181 551.597 677.268 552.427L646.83 554.176C645.471 552.54 644.441 550.657 643.799 548.631C642.99 545.966 642.492 543.216 642.313 540.437C642.062 537.255 641.896 534.646 641.786 532.69C641.675 530.733 641.602 527.856 641.563 524.114C641.525 520.371 641.532 518.202 641.55 517.742C641.181 503.413 638.043 493.797 632.142 488.76C626.24 483.722 614.343 480.637 596.361 479.718L543.911 476.887L540.525 560.412L514 562.048L522.104 362.14ZM547.474 389.004L544.731 456.669L594.371 460.525C600.539 461.019 605.739 461.257 609.977 461.157C614.653 461.126 619.321 460.753 623.943 460.043C628.27 459.566 632.472 458.294 636.334 456.289C639.658 454.319 642.438 451.553 644.422 448.239C646.771 444.159 648.015 439.538 648.032 434.831C648.49 423.544 644.752 415.341 636.801 409.976C628.85 404.611 617.91 400.671 603.949 398.315L547.474 389.004Z" fill="white"/>
<path d="M847.082 426.669L846.54 440.039L779.718 428.899L774.947 546.608L748.422 548.244L753.437 424.526L686.641 413.414L687.373 395.362L847.082 426.669Z" fill="white"/>
<path d="M542 250L472 250.307V277.747L542 280V250Z" fill="white"/>
<path d="M646.5 250L576.5 250.307V277.747L646.5 280V250Z" fill="white"/>
<path d="M751 250L681 250.307V277.747L751 280V250Z" fill="white"/>
</svg>
