<svg width="524" height="373" viewBox="0 0 524 373" fill="none" xmlns="http://www.w3.org/2000/svg">
<g clip-path="url(#clip0_2_2)">
<path d="M285.115 284.626L285.105 166.877H65.0251L65.0079 299.259L66.4057 298.559L67.7332 297.897L69.1466 297.236L70.4741 296.613L70.4651 172.397H279.585V283.597L282.35 284.111L285.115 284.626Z" fill="#00AEEF" stroke="#00AEEF" stroke-width="0.0793701" stroke-miterlimit="10" stroke-linecap="round" stroke-linejoin="round"/>
<path d="M417.825 178.477L393.105 163.037V298.477L417.825 303.837V178.477Z" fill="#00AEEF" stroke="#00AEEF" stroke-width="0.0793701" stroke-miterlimit="10" stroke-linecap="round" stroke-linejoin="round"/>
<path d="M305.741 289.02L305.745 146.237H257.025V78.4767L394.465 34.3967V108.877L419.265 124.237V0.396676L232.305 60.3967V146.237H44.3852L44.5241 311.81L45.8492 310.868L47.1587 309.941L48.476 309.026L49.8245 308.119L49.8252 151.757H300.225L300.22 287.744L305.741 289.02Z" fill="#00AEEF" stroke="#00AEEF" stroke-width="0.0793701" stroke-miterlimit="10" stroke-linecap="round" stroke-linejoin="round"/>
<path d="M483.177 325.63L483.185 176.877L331.905 82.9567V284.397L356.625 291.117V127.517L458.465 190.637L458.451 324.88C458.451 324.88 466.761 326.06 470.947 326.183C475.026 326.303 483.177 325.63 483.177 325.63Z" fill="#00AEEF" stroke="#00AEEF" stroke-width="0.0793701" stroke-miterlimit="10" stroke-linecap="round" stroke-linejoin="round"/>
<path d="M125.665 240.797C125.665 240.797 125.771 238.912 124.438 237.787" stroke="#00AEEF" stroke-width="0.0793701" stroke-miterlimit="10" stroke-linecap="round" stroke-linejoin="round"/>
<path d="M523.196 316.526C523.196 316.526 522.864 319.126 522.34 322.221C521.878 324.954 519.681 334.087 516.465 339.597C512.631 346.353 505.585 355.49 497.839 360.532C493.275 363.466 487.818 365.703 482.902 367.296C473.256 370.322 464.183 371.817 454.697 371.831C449.915 371.838 445.147 371.38 440.42 370.647C436.803 370.085 433.203 369.472 429.619 368.811C391.23 361.735 354.615 349.259 318.11 337.937C308.603 335.588 300.256 333.481 292.205 331.908C284.175 330.338 277.06 329.036 268.145 327.677C212.415 319.357 146.484 318.181 90.0651 334.397C90.0651 334.397 61.4194 343.297 33.6803 353.71C33.6803 353.71 11.8079 361.526 2.41856 359.735L2.14513 359.677C2.03219 359.652 1.82514 359.597 1.82514 359.597C1.82514 359.597 1.13057 359.444 0.7403 358.637C0.3939 357.92 1.26512 356.317 1.26512 356.317C2.61179 353.243 4.33979 351.165 6.22512 348.397L7.66515 346.557C17.4186 334.478 30.7194 321.798 44.524 311.81C46.2906 310.532 48.0426 309.306 49.8245 308.119C52.8927 306.076 55.9955 304.171 59.0251 302.477C60.9777 301.361 62.9638 300.314 65.008 299.259C66.9515 298.256 68.6181 297.468 70.4741 296.613C115.947 275.666 181.287 270.794 228.465 275.117C238.566 275.918 249.05 277.654 259.285 279.305C266.081 280.4 270.653 281.214 279.585 283.097C285.115 284.313 283.682 284.043 285.115 284.313C290.476 285.501 295.29 286.634 300.22 287.744C302.063 288.16 303.929 288.488 305.741 289.02C322.355 293.938 328.487 295.666 339.891 298.88C354.751 303.067 369.589 307.35 384.551 311.155C396.227 314.124 407.902 317.168 419.743 319.388C432.552 321.79 442.482 323.905 458.451 324.88C464.575 325.347 470.602 325.644 476.385 325.757H478.225C479.886 325.747 481.536 325.705 483.177 325.63C495.703 325.059 507.683 322.583 519.505 317.997L522.407 316.838L523.196 316.526ZM19.9616 343.607C46.2443 323.908 80.8671 310.871 112.465 304.557C112.465 304.557 152.804 295.15 197.38 298.709C248.394 301.994 283.779 317.416 283.779 317.416C283.779 317.416 288.395 318.946 297.916 323.646C316.919 333.027 368.667 349.057 399.64 357.279C415.2 361.171 438.865 367.719 453.719 367.802C456.934 368.017 462.798 367.673 466.241 366.958C478.389 365.141 488.364 362.223 497.082 355.783C497.776 355.323 498.869 354.383 499.714 353.625C501.366 352.145 503.01 350.643 504.468 348.972C506.771 346.331 509.051 343.604 510.735 340.531C513.014 336.372 514.645 333.455 515.795 327.235L511.49 329.743C503.378 334.166 490.556 336.265 481.197 337.379C469.896 338.211 458.665 337.785 448.625 336.557L440.305 335.277C425.289 332.839 410.548 329.053 395.825 325.277C371.754 318.79 343.913 310.981 320.225 303.197L308.625 299.357C289.866 293.098 270.937 287.087 251.425 283.677C238.389 281.463 222.314 279.65 209.105 279.197C168.092 278.291 115.588 283.037 77.3452 299.597C56.9452 309.111 32.3711 326.451 18.8103 342.582L14.2451 348.492L19.9616 343.607Z" fill="#00AEEF" stroke="#00AEEF" stroke-width="0.0793701" stroke-miterlimit="10" stroke-linecap="round" stroke-linejoin="round"/>
<path d="M429.819 343.794C429.55 343.791 429.282 343.796 429.014 343.812C427.944 343.873 426.958 344.121 426.055 344.556C425.12 345.02 424.324 345.687 423.664 346.556C423.014 347.428 422.543 348.529 422.254 349.861C421.98 351.125 421.949 352.273 422.161 353.304C422.372 354.336 422.79 355.244 423.411 356.027C424.04 356.812 424.835 357.465 425.797 357.984C426.768 358.505 427.876 358.899 429.123 359.17C430.074 359.376 430.961 359.462 431.786 359.427C432.617 359.403 433.43 359.3 434.225 359.117L435.071 355.211L434.422 355.07C434.197 355.208 433.955 355.345 433.694 355.484C433.433 355.623 433.138 355.746 432.813 355.853C432.469 355.965 432.049 356.039 431.553 356.074C431.067 356.102 430.536 356.052 429.959 355.927C428.721 355.659 427.839 355.096 427.315 354.236C426.799 353.378 426.691 352.261 426.989 350.886C427.277 349.554 427.832 348.573 428.653 347.943C429.484 347.306 430.509 347.12 431.731 347.384C432.282 347.504 432.753 347.673 433.141 347.89C433.531 348.099 433.879 348.335 434.186 348.597C434.508 348.871 434.771 349.135 434.973 349.392C435.184 349.651 435.361 349.877 435.506 350.068L436.155 350.209L437.002 346.302C436.363 345.809 435.654 345.367 434.877 344.976C434.1 344.586 433.224 344.285 432.248 344.074C431.434 343.897 430.624 343.804 429.819 343.794Z" fill="#00AEEF"/>
<path d="M406.441 338.613C405.087 338.584 403.871 338.871 402.793 339.474C401.076 340.442 399.904 342.095 399.275 344.433C398.651 346.755 398.833 348.768 399.822 350.473C400.821 352.171 402.546 353.35 404.994 354.008C407.441 354.666 409.52 354.509 411.228 353.539C412.947 352.563 414.117 350.914 414.742 348.592C415.366 346.27 415.184 344.257 414.195 342.553C413.214 340.851 411.491 339.668 409.027 339.006C408.115 338.761 407.253 338.631 406.441 338.613ZM407.105 342.017C407.44 342.011 407.798 342.059 408.179 342.162C408.615 342.279 409.002 342.461 409.341 342.705C409.68 342.949 409.937 343.277 410.113 343.693C410.291 344.101 410.38 344.607 410.38 345.209C410.38 345.811 410.268 346.527 410.044 347.357C409.803 348.254 409.538 348.937 409.25 349.408C408.972 349.873 408.638 350.246 408.248 350.527C407.9 350.784 407.519 350.933 407.103 350.974C406.698 351.009 406.291 350.971 405.88 350.861C405.403 350.733 404.994 350.543 404.658 350.291C404.329 350.041 404.076 349.715 403.896 349.316C403.712 348.898 403.624 348.389 403.632 347.789C403.644 347.181 403.751 346.492 403.958 345.721C404.19 344.857 404.462 344.162 404.775 343.635C405.096 343.11 405.44 342.721 405.804 342.469C406.209 342.2 406.595 342.05 406.962 342.023C407.009 342.02 407.057 342.018 407.105 342.017Z" fill="#00AEEF"/>
<path d="M444.341 341.067L443.065 361.073L447.745 361.364L448.047 356.606L449.418 355.157L453.111 361.699L458.555 362.038L453.453 353.472L459.099 347.577L453.705 347.24L448.257 353.303L449.019 341.358L444.341 341.067Z" fill="#00AEEF"/>
<path d="M385.771 329.428L384.656 333.456L382.798 332.942L381.951 336.005L383.808 336.518L381.984 343.106C381.507 344.83 381.595 346.165 382.252 347.112C382.916 348.062 384.127 348.78 385.884 349.266C386.671 349.484 387.347 349.631 387.912 349.706C388.474 349.789 389.015 349.836 389.535 349.845L390.392 346.745L390.015 346.641C389.841 346.683 389.549 346.7 389.136 346.694C388.732 346.69 388.414 346.655 388.179 346.591C387.61 346.433 387.198 346.23 386.943 345.979C386.699 345.722 386.559 345.431 386.523 345.106C386.479 344.779 386.504 344.43 386.597 344.059C386.691 343.689 386.804 343.256 386.941 342.762L388.325 337.768L392.554 338.94L393.402 335.878L389.173 334.708L390.288 330.678L385.771 329.428Z" fill="#00AEEF"/>
<path d="M367.435 326.758C366.494 326.738 365.638 326.863 364.868 327.134C363.339 327.671 362.384 328.616 362.005 329.97C361.711 331.024 361.775 331.993 362.195 332.877C362.617 333.752 363.421 334.534 364.607 335.226C365.04 335.483 365.527 335.737 366.07 335.988C366.623 336.233 367.057 336.44 367.37 336.609C368.033 336.948 368.467 337.232 368.673 337.461C368.882 337.681 368.939 337.962 368.843 338.304C368.735 338.689 368.441 338.922 367.958 339.004C367.478 339.077 366.794 338.99 365.907 338.742C365.23 338.553 364.614 338.307 364.058 338.008C363.504 337.699 363.019 337.383 362.605 337.06C362.122 336.691 361.757 336.373 361.507 336.105C361.268 335.831 361.059 335.583 360.878 335.361L360.464 335.246L359.425 338.957C359.964 339.414 360.711 339.902 361.665 340.422C362.62 340.941 363.724 341.376 364.978 341.726C367.243 342.36 369.152 342.416 370.704 341.894C372.259 341.364 373.239 340.372 373.646 338.918C373.924 337.923 373.871 337.016 373.487 336.197C373.106 335.369 372.365 334.635 371.265 333.994C370.767 333.71 370.263 333.452 369.751 333.218C369.25 332.979 368.783 332.75 368.349 332.529C367.562 332.12 367.08 331.795 366.903 331.556C366.727 331.318 366.685 331.031 366.778 330.697C366.881 330.329 367.208 330.113 367.757 330.051C368.315 329.99 368.957 330.062 369.685 330.265C370.562 330.511 371.386 330.9 372.157 331.431C372.939 331.956 373.6 332.542 374.14 333.189L374.528 333.297L375.524 329.736C375.049 329.342 374.356 328.904 373.444 328.424C372.544 327.937 371.566 327.548 370.513 327.254C369.401 326.943 368.376 326.777 367.435 326.758Z" fill="#00AEEF"/>
<path d="M344.864 320.315C344.732 320.314 344.6 320.316 344.47 320.321C343.429 320.362 342.47 320.61 341.591 321.062C339.841 321.968 338.609 323.577 337.897 325.892C337.191 328.19 337.302 330.21 338.229 331.948C339.168 333.681 340.85 334.918 343.272 335.663C345.695 336.408 347.777 336.326 349.519 335.417C351.271 334.503 352.502 332.897 353.208 330.599C353.914 328.3 353.804 326.282 352.876 324.544C351.956 322.808 350.276 321.565 347.837 320.816C346.784 320.492 345.793 320.325 344.864 320.315ZM345.665 323.757C346.041 323.745 346.445 323.806 346.876 323.938C347.307 324.071 347.689 324.267 348.019 324.522C348.349 324.778 348.594 325.116 348.755 325.538C348.918 325.952 348.989 326.46 348.968 327.061C348.946 327.663 348.81 328.375 348.558 329.196C348.285 330.084 347.995 330.757 347.69 331.218C347.396 331.672 347.05 332.034 346.649 332.302C346.293 332.546 345.906 332.682 345.489 332.708C345.083 332.728 344.677 332.675 344.271 332.55C343.798 332.404 343.397 332.201 343.069 331.936C342.75 331.675 342.509 331.342 342.343 330.936C342.174 330.512 342.102 330.001 342.132 329.401C342.164 328.794 342.298 328.108 342.532 327.345C342.795 326.49 343.094 325.804 343.425 325.288C343.764 324.775 344.12 324.399 344.493 324.159C344.907 323.905 345.297 323.771 345.665 323.757Z" fill="#00AEEF"/>
<path d="M317.331 307.055L311.242 325.461L315.964 327.024L318.197 320.274L320.386 320.998L323.171 329.409L328.97 331.327L325.435 321.407C326.793 321.225 327.927 320.81 328.837 320.161C329.755 319.513 330.44 318.509 330.89 317.149C331.217 316.16 331.282 315.272 331.085 314.485C330.9 313.692 330.528 312.975 329.972 312.334C329.424 311.696 328.781 311.186 328.039 310.803C327.296 310.42 326.38 310.048 325.292 309.688L317.331 307.055ZM320.933 312.004L322.652 312.573C323.22 312.761 323.715 312.943 324.132 313.118C324.553 313.284 324.901 313.485 325.179 313.723C325.578 314.065 325.817 314.434 325.898 314.827C325.978 315.219 325.941 315.644 325.788 316.106C325.617 316.625 325.402 317.016 325.142 317.278C324.893 317.534 324.56 317.735 324.146 317.881C323.713 318.03 323.228 318.058 322.693 317.963C322.157 317.868 321.51 317.695 320.751 317.444L319.294 316.961L320.933 312.004Z" fill="#00AEEF"/>
<path d="M124.022 212.761C123.793 210.454 122.811 208.662 121.077 207.385C119.342 206.108 116.988 205.47 114.015 205.47C111.994 205.47 110.288 205.756 108.897 206.328C107.505 206.88 106.438 207.652 105.695 208.643C104.97 209.635 104.608 210.759 104.608 212.017C104.57 213.065 104.789 213.98 105.266 214.762C105.761 215.543 106.438 216.22 107.296 216.792C108.154 217.345 109.145 217.831 110.269 218.25C111.394 218.65 112.595 218.993 113.872 219.279L119.133 220.537C121.687 221.109 124.031 221.872 126.166 222.825C128.301 223.778 130.15 224.95 131.713 226.341C133.276 227.733 134.486 229.372 135.344 231.259C136.221 233.146 136.668 235.309 136.688 237.749C136.668 241.333 135.754 244.439 133.943 247.07C132.151 249.681 129.559 251.711 126.166 253.16C122.792 254.589 118.723 255.304 113.958 255.304C109.23 255.304 105.113 254.58 101.606 253.131C98.1181 251.683 95.3924 249.538 93.4291 246.698C91.4849 243.839 90.4652 240.303 90.3699 236.091H102.35C102.483 238.054 103.045 239.693 104.036 241.009C105.047 242.305 106.39 243.286 108.068 243.953C109.764 244.602 111.68 244.926 113.815 244.926C115.911 244.926 117.732 244.621 119.276 244.011C120.838 243.401 122.049 242.552 122.907 241.466C123.764 240.38 124.193 239.131 124.193 237.721C124.193 236.405 123.802 235.3 123.021 234.404C122.259 233.508 121.134 232.746 119.647 232.117C118.18 231.488 116.378 230.916 114.243 230.401L107.868 228.8C102.931 227.599 99.033 225.722 96.1739 223.168C93.3148 220.614 91.8947 217.173 91.9138 212.846C91.8947 209.301 92.8382 206.204 94.7443 203.554C96.6694 200.905 99.3094 198.837 102.664 197.35C106.019 195.863 109.831 195.12 114.101 195.12C118.446 195.12 122.239 195.863 125.48 197.35C128.739 198.837 131.274 200.905 133.085 203.554C134.896 206.204 135.83 209.272 135.887 212.761H124.022ZM145.015 254.475V195.92H168.116C172.538 195.92 176.312 196.711 179.438 198.293C182.583 199.856 184.976 202.077 186.615 204.955C188.273 207.814 189.102 211.178 189.102 215.048C189.102 218.936 188.264 222.281 186.586 225.083C184.909 227.866 182.479 230.001 179.295 231.488C176.131 232.974 172.3 233.718 167.802 233.718H152.334V223.768H165.8C168.164 223.768 170.127 223.444 171.69 222.796C173.253 222.148 174.416 221.176 175.178 219.88C175.96 218.584 176.351 216.973 176.351 215.048C176.351 213.104 175.96 211.464 175.178 210.13C174.416 208.796 173.244 207.786 171.662 207.099C170.099 206.394 168.126 206.042 165.743 206.042H157.395V254.475H145.015ZM176.636 227.828L191.189 254.475H177.523L163.284 227.828H176.636ZM195.621 206.127V195.92H243.711V206.127H225.785V254.475H213.548V206.127H195.621Z" fill="#00AEEF"/>
</g>
<defs>
<clipPath id="clip0_2_2">
<rect width="523.7" height="372.638" fill="white"/>
</clipPath>
</defs>
</svg>
