<svg width="1024" height="768" viewBox="0 0 1024 768" fill="none" xmlns="http://www.w3.org/2000/svg">
<path d="M26.7077 654.041L80.4686 650.673C81.6327 659.404 84.0027 666.057 87.5785 670.63C93.3994 678.031 101.715 681.732 112.525 681.732C120.592 681.732 126.787 679.861 131.111 676.119C135.518 672.294 137.722 667.886 137.722 662.897C137.722 658.157 135.643 653.916 131.485 650.174C127.327 646.432 117.681 642.898 102.547 639.571C77.766 634 60.0952 626.599 49.5342 617.369C38.8902 608.138 33.5682 596.371 33.5682 582.068C33.5682 572.672 36.2707 563.816 41.6759 555.5C47.1643 547.101 55.3552 540.532 66.2488 535.792C77.2254 530.969 92.2352 528.557 111.278 528.557C134.645 528.557 152.441 532.923 164.665 541.654C176.972 550.303 184.29 564.107 186.618 583.066L133.356 586.185C131.943 577.952 128.949 571.965 124.375 568.223C119.885 564.481 113.648 562.61 105.665 562.61C99.0957 562.61 94.1478 564.023 90.8216 566.851C87.4953 569.595 85.8322 572.963 85.8322 576.954C85.8322 579.865 87.2042 582.484 89.9484 584.813C92.6094 587.224 98.9293 589.469 108.908 591.548C133.606 596.87 151.277 602.276 161.921 607.764C172.648 613.169 180.423 619.905 185.246 627.971C190.152 636.037 192.605 645.06 192.605 655.039C192.605 666.764 189.362 677.574 182.876 687.47C176.39 697.365 167.326 704.891 155.684 710.047C144.042 715.119 129.365 717.656 111.652 717.656C80.5517 717.656 59.0141 711.668 47.0395 699.694C35.065 687.719 28.2877 672.501 26.7077 654.041ZM221.918 714.537V531.676H316.093C333.556 531.676 346.903 533.172 356.133 536.166C365.364 539.16 372.806 544.731 378.461 552.88C384.115 560.947 386.943 570.801 386.943 582.443C386.943 592.588 384.781 601.361 380.456 608.762C376.132 616.08 370.187 622.025 362.619 626.599C357.796 629.509 351.185 631.921 342.786 633.834C349.522 636.079 354.428 638.324 357.505 640.569C359.584 642.066 362.578 645.268 366.486 650.174C370.478 655.08 373.139 658.864 374.469 661.525L401.786 714.537H337.922L307.736 658.656C303.911 651.421 300.501 646.723 297.508 644.561C293.433 641.733 288.818 640.32 283.662 640.32H278.673V714.537H221.918ZM278.673 605.768H302.497C305.075 605.768 310.064 604.937 317.465 603.273C321.207 602.525 324.243 600.612 326.571 597.536C328.982 594.459 330.188 590.925 330.188 586.933C330.188 581.029 328.317 576.497 324.575 573.337C320.833 570.177 313.806 568.597 303.495 568.597H278.673V605.768ZM404.905 531.676H576.665V576.83H519.037V714.537H462.532V576.83H404.905V531.676Z" fill="#479DD7"/>
<path fill-rule="evenodd" clip-rule="evenodd" d="M337.904 489.642C337.904 489.642 337.904 191.217 337.904 0C28.4153 220.812 13.2181 337.543 52.7377 485.943L52.2795 489.642H337.904Z" fill="#479DD7"/>
<path d="M358.306 233.345L551.554 489.961H358.306V233.345Z" fill="#479DD7"/>
</svg>
