<svg width="272" height="194" viewBox="0 0 272 194" fill="none" xmlns="http://www.w3.org/2000/svg">
<g clip-path="url(#clip0_114_2)">
<mask id="mask0_114_2" style="mask-type:luminance" maskUnits="userSpaceOnUse" x="0" y="0" width="272" height="194">
<path d="M271.844 0H0V193.812H271.844V0Z" fill="white"/>
</mask>
<g mask="url(#mask0_114_2)">
<path d="M147.999 148.036L147.994 86.7939H33.7536L33.7446 155.647L34.4702 155.283L35.1593 154.938L35.893 154.595L36.582 154.271L36.5774 89.6649H145.128V147.501L146.563 147.768L147.999 148.036Z" fill="#00AEEF" stroke="#00AEEF" stroke-width="0.0793701" stroke-miterlimit="10" stroke-linecap="round" stroke-linejoin="round"/>
<path d="M216.886 92.8271L204.055 84.7967V155.24L216.886 158.028V92.8271Z" fill="#00AEEF" stroke="#00AEEF" stroke-width="0.0793701" stroke-miterlimit="10" stroke-linecap="round" stroke-linejoin="round"/>
<path d="M158.705 150.321L158.707 76.0589H133.418V40.8163L204.76 17.89V56.6277L217.634 64.6165V0.206299L120.586 31.4127V76.0589H23.0397L23.1118 162.175L23.7996 161.685L24.4794 161.203L25.1631 160.727L25.8631 160.255L25.8635 78.9299H155.842L155.839 149.658L158.705 150.321Z" fill="#00AEEF" stroke="#00AEEF" stroke-width="0.0793701" stroke-miterlimit="10" stroke-linecap="round" stroke-linejoin="round"/>
<path d="M250.809 169.363L250.814 91.995L172.287 43.1464V147.917L185.118 151.412V66.3225L237.982 99.1517L237.975 168.972C237.975 168.972 242.288 169.586 244.461 169.65C246.578 169.713 250.809 169.363 250.809 169.363Z" fill="#00AEEF" stroke="#00AEEF" stroke-width="0.0793701" stroke-miterlimit="10" stroke-linecap="round" stroke-linejoin="round"/>
<path d="M65.2307 125.24C65.2307 125.24 65.2857 124.26 64.5938 123.675" stroke="#00AEEF" stroke-width="0.0793701" stroke-miterlimit="10" stroke-linecap="round" stroke-linejoin="round"/>
<path d="M271.583 164.627C271.583 164.627 271.41 165.98 271.138 167.589C270.899 169.011 269.758 173.761 268.089 176.627C266.099 180.141 262.441 184.893 258.42 187.515C256.051 189.041 253.219 190.205 250.667 191.033C245.66 192.607 240.95 193.385 236.026 193.392C233.544 193.396 231.069 193.157 228.615 192.776C226.737 192.484 224.869 192.165 223.008 191.821C203.081 188.141 184.075 181.652 165.126 175.763C160.191 174.542 155.858 173.446 151.679 172.628C147.511 171.811 143.817 171.134 139.19 170.427C110.261 166.1 76.0375 165.488 46.7514 173.922C46.7514 173.922 31.8818 178.551 17.4829 183.967C17.4829 183.967 6.12931 188.032 1.25545 187.101L1.11352 187.071C1.0549 187.058 0.94742 187.029 0.94742 187.029C0.94742 187.029 0.586879 186.949 0.384297 186.53C0.204486 186.157 0.656722 185.323 0.656722 185.323C1.35576 183.724 2.25273 182.643 3.23138 181.204L3.97888 180.247C9.04174 173.964 15.946 167.369 23.1117 162.175C24.0287 161.51 24.9382 160.872 25.8631 160.255C27.4558 159.192 29.0664 158.202 30.639 157.32C31.6526 156.74 32.6835 156.195 33.7446 155.647C34.7535 155.125 35.6186 154.715 36.582 154.271C60.1862 143.376 94.1032 140.842 118.593 143.09C123.836 143.507 129.278 144.41 134.591 145.269C138.118 145.838 140.492 146.261 145.128 147.241C147.999 147.873 147.255 147.733 147.999 147.873C150.781 148.491 153.28 149.08 155.839 149.658C156.796 149.874 157.765 150.045 158.705 150.321C167.329 152.879 170.512 153.778 176.432 155.45C184.146 157.627 191.848 159.855 199.614 161.834C205.675 163.378 211.735 164.961 217.882 166.116C224.531 167.365 229.685 168.465 237.975 168.972C241.153 169.215 244.282 169.37 247.284 169.429H248.239C249.101 169.423 249.958 169.402 250.809 169.362C257.311 169.066 263.53 167.778 269.667 165.393L271.173 164.79L271.583 164.627ZM10.3618 178.712C24.0047 168.467 41.9768 161.686 58.3788 158.402C58.3788 158.402 79.3181 153.51 102.457 155.361C128.937 157.069 147.305 165.09 147.305 165.09C147.305 165.09 149.701 165.886 154.643 168.331C164.508 173.21 191.369 181.547 207.447 185.823C215.524 187.848 227.808 191.253 235.518 191.296C237.187 191.408 240.231 191.229 242.018 190.857C248.324 189.912 253.502 188.395 258.027 185.045C258.388 184.806 258.955 184.317 259.394 183.923C260.251 183.153 261.104 182.372 261.861 181.503C263.057 180.129 264.24 178.711 265.114 177.113C266.297 174.949 267.144 173.432 267.741 170.197L265.506 171.502C261.295 173.802 254.64 174.894 249.782 175.473C243.915 175.906 238.086 175.684 232.874 175.046L228.555 174.38C220.761 173.112 213.109 171.143 205.466 169.179C192.972 165.805 178.52 161.743 166.224 157.695L160.202 155.698C150.465 152.442 140.639 149.316 130.511 147.542C123.744 146.391 115.4 145.448 108.543 145.212C87.2539 144.741 59.9999 147.21 40.1487 155.823C29.5594 160.771 16.8033 169.789 9.76414 178.179L7.39442 181.253L10.3618 178.712Z" fill="#00AEEF" stroke="#00AEEF" stroke-width="0.0793701" stroke-miterlimit="10" stroke-linecap="round" stroke-linejoin="round"/>
<path d="M223.112 178.81C222.973 178.808 222.833 178.811 222.694 178.819C222.139 178.851 221.627 178.98 221.158 179.206C220.673 179.447 220.26 179.794 219.917 180.246C219.58 180.7 219.335 181.272 219.185 181.965C219.043 182.623 219.027 183.22 219.137 183.756C219.247 184.293 219.464 184.765 219.786 185.172C220.112 185.581 220.525 185.92 221.024 186.19C221.528 186.461 222.104 186.666 222.751 186.807C223.245 186.914 223.705 186.959 224.133 186.941C224.565 186.928 224.987 186.875 225.399 186.779L225.838 184.748L225.502 184.674C225.385 184.746 225.259 184.818 225.124 184.89C224.988 184.962 224.835 185.026 224.666 185.082C224.488 185.14 224.27 185.178 224.012 185.197C223.76 185.211 223.484 185.185 223.185 185.12C222.542 184.981 222.084 184.688 221.812 184.241C221.545 183.794 221.489 183.213 221.643 182.498C221.793 181.806 222.081 181.295 222.507 180.968C222.938 180.636 223.47 180.54 224.105 180.677C224.391 180.739 224.635 180.827 224.837 180.94C225.039 181.049 225.22 181.172 225.379 181.308C225.546 181.45 225.683 181.588 225.788 181.721C225.897 181.856 225.989 181.974 226.064 182.073L226.401 182.146L226.841 180.114C226.509 179.858 226.141 179.628 225.738 179.425C225.334 179.222 224.88 179.065 224.373 178.955C223.951 178.863 223.53 178.815 223.112 178.81Z" fill="#00AEEF"/>
<path d="M210.977 176.115C210.274 176.1 209.643 176.249 209.083 176.563C208.192 177.066 207.584 177.926 207.257 179.142C206.933 180.35 207.028 181.397 207.541 182.284C208.06 183.167 208.955 183.78 210.226 184.122C211.496 184.464 212.575 184.383 213.462 183.878C214.354 183.371 214.962 182.513 215.286 181.305C215.61 180.098 215.515 179.051 215.002 178.164C214.493 177.279 213.598 176.664 212.319 176.319C211.846 176.192 211.399 176.124 210.977 176.115ZM211.322 177.885C211.496 177.882 211.681 177.907 211.879 177.961C212.106 178.022 212.306 178.116 212.482 178.243C212.658 178.37 212.792 178.541 212.883 178.757C212.975 178.969 213.022 179.233 213.022 179.546C213.022 179.859 212.964 180.231 212.847 180.663C212.722 181.129 212.585 181.485 212.435 181.73C212.291 181.971 212.117 182.165 211.915 182.312C211.734 182.445 211.537 182.523 211.321 182.544C211.11 182.562 210.899 182.543 210.686 182.485C210.438 182.419 210.226 182.32 210.051 182.189C209.881 182.059 209.749 181.889 209.656 181.682C209.56 181.464 209.515 181.2 209.519 180.888C209.525 180.571 209.581 180.213 209.688 179.812C209.809 179.363 209.95 179.001 210.112 178.727C210.279 178.454 210.457 178.252 210.646 178.121C210.857 177.981 211.057 177.903 211.247 177.889C211.272 177.887 211.297 177.886 211.322 177.885Z" fill="#00AEEF"/>
<path d="M230.65 177.391L229.988 187.797L232.417 187.948L232.574 185.473L233.286 184.72L235.203 188.122L238.029 188.299L235.38 183.843L238.311 180.777L235.511 180.602L232.683 183.755L233.079 177.543L230.65 177.391Z" fill="#00AEEF"/>
<path d="M200.248 171.338L199.669 173.433L198.704 173.166L198.265 174.759L199.229 175.025L198.282 178.452C198.034 179.349 198.08 180.043 198.421 180.535C198.766 181.03 199.394 181.403 200.306 181.656C200.715 181.769 201.066 181.846 201.359 181.885C201.651 181.928 201.931 181.952 202.201 181.957L202.646 180.345L202.451 180.29C202.36 180.312 202.209 180.321 201.994 180.318C201.785 180.316 201.619 180.298 201.497 180.264C201.202 180.182 200.988 180.077 200.856 179.946C200.729 179.813 200.657 179.661 200.638 179.492C200.615 179.322 200.628 179.141 200.676 178.948C200.725 178.755 200.784 178.53 200.855 178.273L201.573 175.676L203.768 176.285L204.209 174.693L202.013 174.084L202.592 171.988L200.248 171.338Z" fill="#00AEEF"/>
<path d="M190.73 169.949C190.241 169.939 189.797 170.004 189.397 170.145C188.603 170.424 188.108 170.916 187.911 171.62C187.758 172.168 187.792 172.672 188.01 173.132C188.229 173.587 188.646 173.994 189.262 174.353C189.486 174.487 189.739 174.619 190.021 174.75C190.308 174.877 190.533 174.985 190.696 175.073C191.04 175.249 191.265 175.397 191.372 175.516C191.481 175.63 191.51 175.776 191.461 175.954C191.404 176.155 191.252 176.276 191.001 176.318C190.752 176.356 190.397 176.311 189.936 176.182C189.585 176.084 189.265 175.956 188.977 175.8C188.689 175.64 188.437 175.475 188.222 175.307C187.972 175.115 187.782 174.95 187.653 174.811C187.528 174.668 187.42 174.539 187.326 174.424L187.111 174.364L186.572 176.294C186.852 176.532 187.239 176.785 187.735 177.056C188.23 177.326 188.803 177.552 189.454 177.734C190.63 178.064 191.621 178.093 192.427 177.822C193.234 177.546 193.742 177.03 193.954 176.274C194.098 175.756 194.07 175.284 193.871 174.858C193.673 174.428 193.289 174.046 192.718 173.713C192.459 173.565 192.198 173.431 191.932 173.309C191.672 173.185 191.429 173.066 191.204 172.951C190.796 172.738 190.545 172.569 190.454 172.445C190.362 172.321 190.34 172.172 190.389 171.998C190.442 171.806 190.612 171.694 190.897 171.662C191.186 171.63 191.52 171.668 191.898 171.773C192.353 171.901 192.781 172.103 193.181 172.38C193.587 172.653 193.93 172.957 194.21 173.294L194.412 173.35L194.929 171.498C194.682 171.293 194.322 171.065 193.849 170.816C193.382 170.562 192.874 170.36 192.327 170.207C191.75 170.045 191.218 169.959 190.73 169.949Z" fill="#00AEEF"/>
<path d="M179.013 166.598C178.945 166.598 178.876 166.599 178.809 166.601C178.269 166.623 177.771 166.752 177.314 166.987C176.406 167.458 175.767 168.295 175.397 169.499C175.031 170.694 175.088 171.745 175.569 172.649C176.057 173.55 176.93 174.193 178.187 174.581C179.445 174.968 180.526 174.926 181.43 174.453C182.339 173.977 182.978 173.142 183.345 171.947C183.711 170.751 183.654 169.702 183.172 168.798C182.695 167.895 181.823 167.248 180.557 166.859C180.01 166.69 179.496 166.603 179.013 166.598ZM179.429 168.388C179.624 168.382 179.834 168.414 180.058 168.482C180.282 168.552 180.48 168.654 180.651 168.786C180.822 168.919 180.95 169.095 181.033 169.315C181.118 169.53 181.155 169.794 181.144 170.107C181.132 170.42 181.062 170.79 180.931 171.217C180.789 171.679 180.639 172.029 180.48 172.269C180.328 172.505 180.148 172.693 179.94 172.833C179.755 172.96 179.554 173.03 179.338 173.044C179.127 173.054 178.916 173.027 178.706 172.962C178.46 172.886 178.252 172.78 178.082 172.642C177.916 172.507 177.791 172.333 177.705 172.122C177.617 171.902 177.58 171.636 177.595 171.324C177.612 171.008 177.681 170.651 177.803 170.255C177.939 169.81 178.095 169.453 178.266 169.185C178.442 168.918 178.627 168.722 178.821 168.597C179.036 168.465 179.238 168.396 179.429 168.388Z" fill="#00AEEF"/>
<path d="M164.721 159.702L161.561 169.275L164.012 170.088L165.171 166.577L166.307 166.953L167.753 171.328L170.763 172.326L168.928 167.166C169.633 167.071 170.222 166.856 170.694 166.518C171.171 166.181 171.526 165.659 171.76 164.951C171.929 164.437 171.963 163.975 171.861 163.566C171.765 163.153 171.572 162.781 171.283 162.447C170.999 162.115 170.665 161.85 170.28 161.651C169.894 161.452 169.419 161.258 168.854 161.071L164.721 159.702ZM166.591 162.276L167.484 162.571C167.778 162.669 168.035 162.764 168.252 162.855C168.47 162.941 168.651 163.046 168.795 163.17C169.002 163.347 169.126 163.539 169.168 163.744C169.21 163.948 169.191 164.169 169.111 164.409C169.023 164.679 168.911 164.882 168.776 165.019C168.647 165.152 168.474 165.256 168.259 165.332C168.034 165.41 167.783 165.424 167.505 165.375C167.227 165.325 166.891 165.235 166.497 165.105L165.74 164.854L166.591 162.276Z" fill="#00AEEF"/>
<path d="M64.3778 110.658C64.2589 109.459 63.7492 108.527 62.8491 107.862C61.9485 107.198 60.7266 106.866 59.1833 106.866C58.1343 106.866 57.2487 107.015 56.5267 107.313C55.8041 107.6 55.2502 108.001 54.8646 108.517C54.4882 109.033 54.3003 109.617 54.3003 110.272C54.2806 110.817 54.3943 111.292 54.6419 111.699C54.8988 112.105 55.2502 112.458 55.6956 112.755C56.141 113.043 56.6554 113.295 57.2388 113.513C57.8228 113.721 58.4462 113.9 59.1091 114.049L61.84 114.703C63.1658 115 64.3825 115.397 65.4907 115.893C66.599 116.389 67.5588 116.998 68.3701 117.722C69.1814 118.446 69.8095 119.298 70.2549 120.279C70.7101 121.261 70.9421 122.386 70.9525 123.655C70.9421 125.519 70.4677 127.134 69.5276 128.503C68.5974 129.861 67.252 130.917 65.4907 131.67C63.7393 132.414 61.6272 132.785 59.1537 132.785C56.6995 132.785 54.5625 132.409 52.742 131.655C50.9315 130.902 49.5166 129.786 48.4975 128.309C47.4883 126.822 46.959 124.983 46.9095 122.793H53.1282C53.1973 123.814 53.489 124.666 54.0034 125.35C54.5282 126.025 55.2253 126.535 56.0963 126.882C56.9767 127.219 57.9713 127.388 59.0795 127.388C60.1675 127.388 61.1128 127.229 61.9142 126.912C62.725 126.595 63.3537 126.153 63.799 125.588C64.2439 125.023 64.4666 124.374 64.4666 123.64C64.4666 122.956 64.2636 122.381 63.8582 121.915C63.4627 121.449 62.8787 121.053 62.1068 120.726C61.3453 120.399 60.4099 120.101 59.3017 119.833L55.9925 119C53.4298 118.376 51.4064 117.4 49.9223 116.071C48.4382 114.743 47.701 112.953 47.711 110.703C47.701 108.859 48.1908 107.248 49.1802 105.87C50.1795 104.492 51.5499 103.417 53.2912 102.643C55.0327 101.87 57.0115 101.483 59.228 101.483C61.4834 101.483 63.4523 101.87 65.1346 102.643C66.8263 103.417 68.1422 104.492 69.0823 105.87C70.0223 107.248 70.5072 108.844 70.5367 110.658H64.3778ZM75.2749 132.354V101.899H87.2663C89.5617 101.899 91.5207 102.311 93.1434 103.134C94.7759 103.947 96.0181 105.102 96.8688 106.599C97.7295 108.086 98.1598 109.835 98.1598 111.848C98.1598 113.87 97.7248 115.61 96.8538 117.067C95.9833 118.515 94.7219 119.625 93.0691 120.399C91.4268 121.171 89.4381 121.558 87.1033 121.558H79.0741V116.383H86.0641C87.2912 116.383 88.3102 116.215 89.1215 115.878C89.9328 115.541 90.5365 115.035 90.9321 114.361C91.338 113.687 91.541 112.849 91.541 111.848C91.541 110.837 91.338 109.984 90.9321 109.29C90.5365 108.596 89.9282 108.071 89.107 107.714C88.2956 107.347 87.2715 107.164 86.0345 107.164H81.7012V132.354H75.2749ZM91.6889 118.495L99.2431 132.354H92.1493L84.7581 118.495H91.6889ZM101.544 107.208V101.899H126.506V107.208H117.201V132.354H110.849V107.208H101.544Z" fill="#00AEEF"/>
</g>
</g>
<defs>
<clipPath id="clip0_114_2">
<rect width="272" height="194" fill="white"/>
</clipPath>
</defs>
</svg>
